<svg width="20" height="24" viewBox="0 0 20 24" fill="none" xmlns="http://www.w3.org/2000/svg">
<g clip-path="url(#clip0)">
<path d="M10.0082 24C9.31687 24 8.62551 23.7517 8.0823 23.2552C5.0535 20.5076 0 15.1283 0 9.81517C0 4.40276 4.49383 0 10.0082 0C15.5226 0 20.0165 4.40276 20.0165 9.81517C20.0165 15.1283 14.963 20.5241 11.9506 23.2552C11.3909 23.7517 10.6996 24 10.0082 24ZM10.0082 2.48276C5.84362 2.48276 2.46914 5.77655 2.46914 9.81517C2.46914 14.4662 8.03292 19.8621 9.72839 21.4179C9.893 21.5669 10.1235 21.5669 10.2881 21.4179C11.9835 19.8786 17.5473 14.4662 17.5473 9.83172C17.5309 5.77655 14.1564 2.48276 10.0082 2.48276Z" fill="#383838"/>
<path d="M10.008 14.1847C8.95451 14.1847 7.88456 13.7874 7.07797 12.9764C6.28785 12.1985 5.85986 11.1557 5.85986 10.0468C5.85986 8.93779 6.28785 7.89503 7.07797 7.1171C8.69114 5.51158 11.3249 5.51158 12.9381 7.1171C13.7282 7.89503 14.1562 8.93779 14.1562 10.0468C14.1562 11.1557 13.7282 12.1985 12.9381 12.9764C12.1315 13.7709 11.0615 14.1847 10.008 14.1847ZM10.008 8.39158C9.58003 8.39158 9.13558 8.5571 8.80637 8.88814C8.49361 9.20262 8.31254 9.61641 8.31254 10.0468C8.31254 10.4937 8.47715 10.9074 8.80637 11.2054C9.4648 11.8674 10.5348 11.8674 11.1932 11.2054C11.5224 10.8909 11.687 10.4771 11.687 10.0468C11.687 9.59986 11.5224 9.18607 11.1932 8.87158C10.864 8.5571 10.436 8.39158 10.008 8.39158Z" fill="#383838"/>
</g>
<defs>
<clipPath id="clip0">
<rect width="20" height="24" fill="white"/>
</clipPath>
</defs>
</svg>
