<svg width="10" height="9" viewBox="0 0 10 9" fill="none" xmlns="http://www.w3.org/2000/svg">
<g clip-path="url(#clip0)">
<path d="M1.72971 7.29832C1.49786 7.08964 1.25836 6.90451 1.05569 6.68647C0.336018 5.91188 -0.035193 4.99628 0.00248824 3.9435C0.0328708 3.0959 0.369795 2.35706 0.928733 1.71781C1.63313 0.912143 2.53069 0.411233 3.57338 0.169801C5.05482 -0.173217 6.47432 -0.00362968 7.79893 0.75375C8.64167 1.23545 9.29532 1.90177 9.64803 2.80618C10.1632 4.12662 9.93607 5.34999 9.04937 6.44805C8.3577 7.30467 7.4318 7.81327 6.36365 8.0806C5.6175 8.26723 4.86167 8.29897 4.09939 8.19121C4.06323 8.18603 4.01689 8.20407 3.98481 8.22529C3.4919 8.54826 2.96216 8.7937 2.39491 8.96112C1.86958 9.116 1.37751 8.80272 1.31352 8.26873C1.28942 8.06723 1.35036 7.88528 1.46645 7.7182C1.54776 7.60141 1.6221 7.47977 1.69831 7.35981C1.71478 7.33408 1.72598 7.30568 1.72971 7.29832ZM4.95434 0.750742C4.43801 0.749573 3.93288 0.821418 3.442 0.97697C2.58501 1.24864 1.85379 1.70394 1.32456 2.43308C0.858123 3.07585 0.651725 3.78861 0.80262 4.57707C0.98831 5.54798 1.5206 6.28464 2.38438 6.78956C2.58161 6.90485 2.65273 7.08062 2.56175 7.28629C2.46619 7.50233 2.35417 7.71135 2.24333 7.92053C2.20175 7.9989 2.14098 8.06723 2.09413 8.14309C2.08039 8.16531 2.07054 8.21092 2.08259 8.22278C2.10143 8.2415 2.13996 8.24334 2.17069 8.24684C2.18613 8.24852 2.20293 8.23816 2.21923 8.23331C2.74761 8.07258 3.23849 7.83649 3.68591 7.51687C3.80608 7.43099 3.92863 7.40342 4.07579 7.42881C4.79038 7.55212 5.5014 7.5299 6.20427 7.35062C7.11354 7.11854 7.89755 6.68129 8.48534 5.94764C9.04683 5.2469 9.27359 4.4531 9.09266 3.56924C8.93769 2.81186 8.51267 2.2122 7.90841 1.73385C7.04769 1.05199 6.04761 0.763106 4.95434 0.750742Z" fill="#383838"/>
<path d="M4.94981 3.75164C4.44943 3.75164 3.94923 3.75281 3.44885 3.75114C3.20205 3.75031 3.03758 3.58339 3.04963 3.35282C3.05914 3.17254 3.20833 3.0225 3.39165 3.00896C3.40574 3.00796 3.41982 3.00746 3.43408 3.00746C4.44604 3.00746 5.458 3.00662 6.46979 3.00796C6.70725 3.0083 6.87002 3.18089 6.85593 3.40913C6.84558 3.57587 6.71234 3.72057 6.54345 3.74496C6.5017 3.75098 6.45892 3.75148 6.41666 3.75164C5.92782 3.75181 5.43882 3.75164 4.94981 3.75164Z" fill="#383838"/>
<path d="M4.18737 5.25051C3.94142 5.25051 3.69565 5.25134 3.44971 5.25034C3.21344 5.24934 3.04896 5.09579 3.04913 4.87892C3.04913 4.66539 3.2114 4.50817 3.44156 4.507C3.94176 4.50483 4.44197 4.50483 4.94234 4.507C5.14331 4.50784 5.30031 4.63849 5.32628 4.81677C5.35446 5.00941 5.24481 5.18367 5.05895 5.23547C5.01635 5.24733 4.96984 5.24967 4.92503 5.24984C4.67909 5.25117 4.43331 5.25051 4.18737 5.25051Z" fill="#383838"/>
</g>
<defs>
<clipPath id="clip0">
<rect width="9.92" height="9" fill="white"/>
</clipPath>
</defs>
</svg>
