<svg width="20" height="24" viewBox="0 0 20 24" fill="none" xmlns="http://www.w3.org/2000/svg">
<g clip-path="url(#clip0)">
<path d="M10.0082 24C9.31687 24 8.62551 23.7517 8.0823 23.2552C5.0535 20.5076 0 15.1283 0 9.81517C0 4.40276 4.49383 0 10.0082 0C15.5226 0 20.0165 4.40276 20.0165 9.81517C20.0165 15.1283 14.963 20.5241 11.9506 23.2552C11.3909 23.7517 10.6996 24 10.0082 24ZM10.0082 2.48276C5.84362 2.48276 2.46914 5.77655 2.46914 9.81517C2.46914 14.4662 8.03292 19.8621 9.72839 21.4179C9.893 21.5669 10.1235 21.5669 10.2881 21.4179C11.9835 19.8786 17.5473 14.4662 17.5473 9.83172C17.5309 5.77655 14.1564 2.48276 10.0082 2.48276Z" fill="#F4CA6D"/>
<path d="M10.0083 14.1848C8.95476 14.1848 7.8848 13.7876 7.07821 12.9765C6.28809 12.1986 5.86011 11.1558 5.86011 10.0469C5.86011 8.93791 6.28809 7.89515 7.07821 7.11722C8.69138 5.51171 11.3251 5.51171 12.9383 7.11722C13.7284 7.89515 14.1564 8.93791 14.1564 10.0469C14.1564 11.1558 13.7284 12.1986 12.9383 12.9765C12.1317 13.771 11.0618 14.1848 10.0083 14.1848ZM10.0083 8.39171C9.58027 8.39171 9.13583 8.55722 8.80661 8.88826C8.49385 9.20274 8.31278 9.61653 8.31278 10.0469C8.31278 10.4938 8.47739 10.9076 8.80661 11.2055C9.46505 11.8676 10.535 11.8676 11.1934 11.2055C11.5227 10.891 11.6873 10.4772 11.6873 10.0469C11.6873 9.59998 11.5227 9.18619 11.1934 8.87171C10.8642 8.55722 10.4362 8.39171 10.0083 8.39171Z" fill="#F4CA6D"/>
</g>
<defs>
<clipPath id="clip0">
<rect width="20" height="24" fill="white"/>
</clipPath>
</defs>
</svg>
