<svg width="22" height="23" viewBox="0 0 22 23" fill="none" xmlns="http://www.w3.org/2000/svg">
<g clip-path="url(#clip0)">
<path d="M15.7444 23.0002C12.7409 23.0002 9.16349 21.0619 5.56697 17.3051C5.54784 17.2851 5.52871 17.2652 5.50958 17.2452C-0.133901 11.3303 -1.54955 5.47541 1.79827 1.95846L2.56349 1.15916C3.34784 0.31989 4.43827 -0.0997455 5.54784 0.0201502C6.6574 0.120063 7.65219 0.719542 8.28349 1.67871C8.80001 2.45803 9.35479 3.27732 9.96697 4.19652C11.0191 5.77515 10.847 7.87332 9.56523 9.21216L9.5461 9.23214C10.0435 9.91155 10.6174 10.591 11.2296 11.2504C11.8609 11.9098 12.5113 12.5093 13.1618 13.0089L13.1809 12.9889C14.4818 11.67 16.4904 11.4902 17.9826 12.5892L20.4122 14.3477C21.3304 15.0071 21.9044 16.0462 22 17.2052C22.0957 18.3642 21.6939 19.5032 20.9096 20.3225L20.1444 21.1218C18.9391 22.3807 17.4278 23.0002 15.7444 23.0002ZM7.48001 15.0671C7.49914 15.087 7.51827 15.107 7.5374 15.127C10.8278 18.564 15.5722 21.6413 18.1165 19.0036L18.8818 18.2043C19.1304 17.9246 19.1496 17.6248 19.1304 17.465C19.1304 17.3051 19.0539 17.0254 18.767 16.8056L16.3374 15.0271C15.9931 14.7873 15.4957 14.8273 15.2087 15.127L14.3478 16.0262C13.8696 16.5258 13.1426 16.6057 12.5687 16.2261C11.4209 15.4667 10.2922 14.5076 9.22088 13.3685C8.13045 12.2295 7.21219 11.0506 6.48523 9.87158C6.12175 9.27211 6.19827 8.51277 6.67653 8.0132L7.5374 7.11398C7.82436 6.79426 7.86262 6.29469 7.61392 5.93501C7.00175 4.99582 6.42784 4.15655 5.91132 3.37723C5.72001 3.07749 5.43306 3.01754 5.28001 2.99756C5.12697 2.97758 4.84001 2.99756 4.59132 3.25734L3.8261 4.07662C1.32001 6.71433 4.20871 11.6301 7.48001 15.0671Z" fill="#F4CA6D"/>
</g>
<defs>
<clipPath id="clip0">
<rect width="22" height="23" fill="white"/>
</clipPath>
</defs>
</svg>
