<svg width="26" height="23" viewBox="0 0 26 23" fill="none" xmlns="http://www.w3.org/2000/svg">
<g clip-path="url(#clip0)">
<path d="M13.018 0.00102117C15.8575 0.00102117 18.6975 -0.00317175 21.5371 0.00241881C23.6313 0.00661172 25.3678 1.40332 25.857 3.48626C25.9465 3.86689 25.9977 4.26755 25.9982 4.65888C26.0035 8.99343 25.9924 13.3275 25.9928 17.662C25.9928 19.3019 25.4226 20.6712 24.2385 21.7445C23.3622 22.5389 22.3323 22.9638 21.1704 22.987C20.1253 23.0085 19.0798 22.9954 18.0342 22.9954C13.7188 22.9959 9.40376 22.9987 5.08832 22.994C3.22261 22.9922 1.773 22.1648 0.757285 20.5319C0.221808 19.6714 -0.00227204 18.7103 -4.46026e-05 17.6835C0.00574674 15.055 0.00173735 12.4265 0.00173735 9.798C0.00173735 8.09987 -0.00138107 6.40174 0.00262832 4.70361C0.00797418 2.41241 1.45937 0.529794 3.57099 0.0890724C3.8953 0.0215199 4.23343 0.00521408 4.56531 0.0047482C7.38302 -0.00177411 10.2007 0.00102117 13.018 0.00102117ZM1.98683 8.4395C1.98683 8.57833 1.98683 8.65427 1.98683 8.73067C1.98683 11.7156 1.98594 14.7009 1.98906 17.6858C1.98906 17.8941 1.99886 18.106 2.0345 18.3105C2.30758 19.8796 3.5251 20.9171 5.10079 20.9181C10.3647 20.9209 15.629 20.9195 20.8929 20.9171C21.0996 20.9171 21.3099 20.9083 21.5126 20.8692C23 20.584 24.0015 19.3201 24.0046 17.7086C24.0104 14.7158 24.0064 11.723 24.0064 8.7302C24.0064 8.65613 24.0064 8.58205 24.0064 8.45487C23.8888 8.53267 23.8148 8.57833 23.744 8.62818C21.8787 9.95034 20.0113 11.2697 18.1491 12.597C16.8746 13.5055 15.4771 14.0701 13.9428 14.2304C11.7247 14.4619 9.69555 13.8996 7.85257 12.5882C5.98954 11.2623 4.1225 9.94242 2.25724 8.61979C2.18552 8.56948 2.11157 8.52289 1.98683 8.4395ZM13.014 2.07558C10.2123 2.07558 7.4102 2.07279 4.60853 2.07978C4.32965 2.08024 4.0383 2.09468 3.77368 2.17668C2.81455 2.47484 2.2118 3.1485 2.04786 4.18462C1.88214 5.23052 2.24432 6.08587 3.07694 6.6836C5.04421 8.09614 7.02307 9.49098 9.00014 10.8882C11.494 12.6506 14.5184 12.6482 17.0171 10.8854C18.1228 10.1055 19.2254 9.32001 20.3298 8.53686C21.2132 7.91026 22.1042 7.29576 22.9773 6.65471C24.1997 5.75743 24.3592 3.96798 23.3284 2.84894C22.8205 2.29734 22.1893 2.07186 21.464 2.07372C18.6476 2.07884 15.8308 2.07558 13.014 2.07558Z" fill="#F4CA6D"/>
</g>
<defs>
<clipPath id="clip0">
<rect width="26" height="23" fill="white"/>
</clipPath>
</defs>
</svg>
