<svg width="14" height="12" viewBox="0 0 14 12" fill="none" xmlns="http://www.w3.org/2000/svg">
<path d="M6.98755 11.9998C5.22686 11.9998 3.46593 12.0019 1.70523 11.9988C0.907315 11.9975 0.228964 11.4116 0.0473359 10.5688C0.0149879 10.4186 0.00252786 10.2603 0.00228824 10.1057C-0.000347524 7.36867 -0.00106637 4.63168 0.00132978 1.8947C0.00204863 0.804426 0.746293 0.00160073 1.75316 0.00134083C5.25082 4.13384e-05 8.74848 4.13384e-05 12.2461 0.00134083C13.253 0.00160073 13.9973 0.804426 13.9982 1.8947C14.0004 4.63168 14.0004 7.36867 13.9982 10.1057C13.9973 11.1964 13.2528 11.9985 12.2461 11.9995C10.4931 12.0008 8.74034 11.9998 6.98755 11.9998ZM1.07768 2.45998C1.07409 2.52469 1.06977 2.56575 1.06977 2.60682C1.06953 5.0969 1.06906 7.58724 1.07001 10.0773C1.07025 10.5568 1.32904 10.837 1.76969 10.837C5.25537 10.8375 8.74106 10.8375 12.2267 10.837C12.6686 10.837 12.9291 10.5576 12.9291 10.0802C12.93 7.58568 12.9295 5.09118 12.9291 2.59668C12.9291 2.55328 12.9226 2.50988 12.9173 2.4436C12.8564 2.4896 12.8174 2.51845 12.7791 2.54808C11.3198 3.67708 9.8603 4.80608 8.40104 5.93507C8.31981 5.99797 8.23858 6.06112 8.15711 6.1235C7.42581 6.68514 6.53827 6.68722 5.80936 6.12298C4.27583 4.93576 2.74397 3.74569 1.21115 2.55718C1.17353 2.52781 1.13423 2.50104 1.07768 2.45998ZM1.405 1.22754C1.40428 1.24157 1.40356 1.25587 1.40284 1.2699C1.43016 1.29355 1.45675 1.31876 1.48527 1.34086C3.12807 2.61566 4.77087 3.89071 6.41439 5.16473C6.79346 5.45842 7.17421 5.45686 7.5564 5.16136C9.20136 3.88942 10.8458 2.61695 12.4903 1.34449C12.5236 1.31876 12.5543 1.2894 12.5862 1.26159C12.584 1.24521 12.5821 1.22884 12.5799 1.21247C12.4525 1.19609 12.325 1.16516 12.1975 1.16516C8.9155 1.16257 5.63349 1.16309 2.35124 1.16309C2.13558 1.16309 1.91969 1.15685 1.70451 1.16646C1.60412 1.17114 1.50492 1.20623 1.405 1.22754Z" fill="#C4C4C4"/>
</svg>
