<svg width="18" height="18" viewBox="0 0 18 18" fill="none" xmlns="http://www.w3.org/2000/svg">
<path d="M9.00627 0.000466657C10.377 0.000466657 11.7478 -0.000765609 13.1182 0.000774723C15.4922 0.00354732 17.443 1.59871 17.909 3.92616C17.9642 4.20126 17.9928 4.48622 17.9934 4.76656C17.9996 7.5903 18.0036 10.4143 17.9953 13.2381C17.9885 15.5569 16.2346 17.5818 13.9406 17.9342C13.6779 17.9746 13.4099 17.9959 13.1441 17.9962C10.3823 18.0005 7.62012 18.0011 4.8583 17.9983C2.41868 17.9959 0.40199 16.2525 0.046828 13.8397C0.0154086 13.6272 0.00370339 13.4103 0.00339535 13.1953C0.000623059 10.4023 -0.00214924 7.60909 0.00247126 4.81616C0.00709175 2.35687 1.86176 0.300215 4.31062 0.0306572C4.50406 0.00940058 4.69966 0.00200699 4.89434 0.00169892C6.26509 -0.000765609 7.63583 0.000466657 9.00627 0.000466657ZM10.5162 16.621C10.5896 16.621 10.6401 16.621 10.6906 16.621C11.5069 16.621 12.3232 16.6234 13.1395 16.6203C15.0945 16.6133 16.615 15.0973 16.6187 13.1401C16.6239 10.378 16.6242 7.61556 16.6187 4.85344C16.6147 2.90522 15.0945 1.38307 13.1496 1.37937C10.3826 1.37413 7.6155 1.37691 4.84844 1.3803C4.63898 1.3806 4.42613 1.39447 4.22098 1.4339C2.53974 1.75521 1.38215 3.15507 1.37999 4.87192C1.37661 7.62388 1.37876 10.3758 1.37999 13.1278C1.37999 13.2713 1.38092 13.4164 1.39971 13.5582C1.63782 15.361 3.07202 16.6179 4.89372 16.6206C6.24907 16.6228 7.60441 16.621 8.95945 16.621C9.01428 16.621 9.06942 16.621 9.12856 16.621C9.12856 14.5772 9.12856 12.5532 9.12856 10.5336C9.10515 10.5259 9.09529 10.52 9.08574 10.52C8.78787 10.5185 8.49031 10.5191 8.19245 10.516C7.78338 10.5117 7.48828 10.2295 7.48366 9.84165C7.47873 9.44486 7.77106 9.15127 8.18567 9.14326C8.4475 9.13833 8.70932 9.14264 8.97115 9.14141C9.02506 9.1411 9.07897 9.13494 9.14304 9.13094C9.14304 8.77389 9.13872 8.43532 9.14365 8.09707C9.16583 6.64361 10.1343 5.42274 11.5417 5.07463C12.1134 4.93323 12.6956 4.99053 13.2741 5.00069C13.4484 5.00377 13.5929 5.1119 13.6985 5.25331C13.8633 5.47357 13.8923 5.71571 13.7765 5.96432C13.6545 6.22649 13.437 6.35649 13.1502 6.36204C12.8268 6.3682 12.5027 6.35434 12.1802 6.37066C11.3171 6.41379 10.6145 7.07922 10.5357 7.93934C10.5048 8.27575 10.528 8.61647 10.5132 8.95472C10.5067 9.10106 10.5474 9.14665 10.6983 9.14542C11.4887 9.13802 12.2794 9.1408 13.0701 9.14357C13.1715 9.14388 13.2778 9.15065 13.3733 9.18084C13.6964 9.28251 13.8824 9.59827 13.8341 9.94208C13.7888 10.2625 13.5091 10.512 13.1693 10.5142C12.353 10.5194 11.5368 10.516 10.7205 10.5163C10.5166 10.5163 10.5162 10.5166 10.5162 10.7126C10.5162 12.6173 10.5162 14.5221 10.5162 16.4269C10.5162 16.4826 10.5162 16.5384 10.5162 16.621Z" fill="black"/>
</svg>
