<svg width="12" height="10" viewBox="0 0 12 10" fill="none" xmlns="http://www.w3.org/2000/svg">
<path d="M-0.000234604 3.58741C0.00428963 4.55099 0.295503 5.28402 0.746513 5.97033C1.22652 6.70069 1.84391 7.32254 2.52999 7.88833C3.44414 8.64233 4.44221 9.28592 5.51575 9.82959C5.59369 9.86907 5.67472 9.90358 5.75349 9.94191C5.91719 10.0216 6.07884 10.0197 6.2444 9.94325C6.89243 9.64405 7.5018 9.28574 8.09204 8.8992C9.03766 8.27982 9.91541 7.5897 10.6511 6.75484C11.1485 6.19039 11.5547 5.5775 11.8015 4.87975C12.4574 3.02582 11.4054 1.06663 9.82903 0.363158C8.50582 -0.227231 7.24082 -0.0943168 6.07699 0.752174C6.02558 0.78955 5.9937 0.809573 5.93221 0.760183C4.60529 -0.300076 2.46623 -0.271662 1.12287 1.09676C0.390106 1.84314 0.0207424 2.72643 -0.000234604 3.58741ZM11.0858 3.71995C11.0836 4.03612 11.0254 4.34123 10.9199 4.63871C10.6912 5.28268 10.2981 5.83799 9.82369 6.34485C8.76228 7.47853 7.47177 8.34294 6.06609 9.0693C6.03072 9.0876 5.9647 9.08532 5.9285 9.06663C4.69949 8.43734 3.56713 7.686 2.57996 6.7558C2.07096 6.27601 1.622 5.75255 1.30282 5.14367C0.679057 3.95317 0.798751 2.8233 1.69131 1.79375C2.34428 1.04069 3.21257 0.739016 4.2493 0.915599C4.79347 1.00828 5.23626 1.27449 5.61117 1.64748C5.68521 1.72109 5.78207 1.79069 5.88305 1.82197C6.09365 1.88719 6.25468 1.79203 6.39638 1.64634C7.24986 0.768574 8.63786 0.600001 9.68692 1.268C10.6085 1.85496 11.0293 2.70259 11.0858 3.71995Z" fill="#383838"/>
</svg>
