<svg width="54" height="43" viewBox="0 0 54 43" fill="none" xmlns="http://www.w3.org/2000/svg">
<path d="M26.9938 0.00360676C33.6629 0.00360676 40.332 -0.00381271 47.0011 0.00638906C50.3435 0.0119537 53.1241 2.26376 53.8414 5.53296C53.946 6.01059 53.9905 6.51141 53.9914 7.00109C53.9997 16.4609 54.0034 25.9207 53.996 35.3815C53.9923 39.6301 50.6351 42.992 46.3902 42.9948C33.4676 43.0022 20.545 43.0013 7.62331 42.9948C3.35064 42.9929 0.00729592 39.6338 0.00451906 35.3472C-0.00196029 25.9031 -0.00103467 16.4581 0.00451906 7.01407C0.00729592 3.11051 3.08314 0.0156634 6.98648 0.00731649C13.6556 -0.00659501 20.3247 0.00360676 26.9938 0.00360676ZM26.9947 4.14274C20.4339 4.14274 13.8722 4.14181 7.31138 4.14645C6.97445 4.14645 6.62549 4.14831 6.3043 4.2327C5.15745 4.53412 4.41973 5.28719 4.19296 6.44556C3.9597 7.64009 4.35216 8.65563 5.35739 9.36326C6.756 10.3473 8.18053 11.2933 9.59674 12.2522C13.7167 15.0429 17.8588 17.8011 21.9519 20.6306C24.7973 22.5977 28.9487 22.735 31.8089 20.8161C34.4441 19.0484 37.0655 17.2585 39.6915 15.4769C42.6359 13.4783 45.5812 11.4806 48.5219 9.47548C49.6836 8.68345 50.1427 7.38598 49.7326 6.12003C49.3364 4.89767 48.2535 4.1446 46.8632 4.14367C40.2404 4.14181 33.6175 4.14274 26.9947 4.14274ZM46.8798 38.8343C46.7391 38.6729 46.6753 38.5904 46.6022 38.5181C42.1592 34.0655 37.7143 29.6147 33.2778 25.1565C33.0612 24.9386 32.9048 24.9506 32.6447 25.0693C28.8784 26.7814 25.1083 26.7805 21.3493 25.0452C21.0744 24.9182 20.9236 24.9571 20.719 25.1621C16.2918 29.6082 11.8571 34.0478 7.42615 38.4893C7.33822 38.5774 7.26509 38.6804 7.13551 38.8352C20.4126 38.8343 33.5925 38.8343 46.8798 38.8343ZM4.16056 35.6894C8.5406 31.3008 12.929 26.9038 17.3238 22.5013C12.9947 19.5632 8.60725 16.5852 4.16056 13.5673C4.16056 21.0304 4.16056 28.3951 4.16056 35.6894ZM36.723 22.4966C41.1215 26.9066 45.5034 31.2998 49.8289 35.6365C49.8289 28.3951 49.8289 21.035 49.8289 13.5979C45.3905 16.6112 41.0132 19.5836 36.723 22.4966Z" fill="#383838"/>
</svg>
