<svg width="26" height="23" viewBox="0 0 26 23" fill="none" xmlns="http://www.w3.org/2000/svg">
<g clip-path="url(#clip0)">
<path d="M13.0181 0.00114324C15.8576 0.00114324 18.6976 -0.00304968 21.5371 0.00254088C23.6314 0.00673379 25.3679 1.40344 25.857 3.48639C25.9466 3.86701 25.9978 4.26767 25.9982 4.65901C26.0036 8.99355 25.9924 13.3276 25.9929 17.6622C25.9929 19.3021 25.4227 20.6713 24.2386 21.7447C23.3623 22.539 22.3323 22.9639 21.1705 22.9872C20.1254 23.0086 19.0798 22.9956 18.0343 22.9956C13.7188 22.996 9.40382 22.9988 5.08838 22.9942C3.22267 22.9923 1.77306 22.1649 0.757346 20.532C0.221869 19.6715 -0.00221101 18.7104 1.64326e-05 17.6836C0.00580777 15.0551 0.00179838 12.4266 0.00179838 9.79812C0.00179838 8.09999 -0.00132003 6.40186 0.00268936 4.70373C0.00803521 2.41254 1.45943 0.529916 3.57105 0.0891944C3.89536 0.0216419 4.23349 0.00533615 4.56537 0.00487027C7.38308 -0.00165204 10.2008 0.00114324 13.0181 0.00114324ZM1.98689 8.43962C1.98689 8.57845 1.98689 8.65439 1.98689 8.73079C1.98689 11.7157 1.986 14.701 1.98912 17.6859C1.98912 17.8942 1.99892 18.1061 2.03456 18.3107C2.30764 19.8798 3.52516 20.9173 5.10085 20.9182C10.3647 20.921 15.6291 20.9196 20.8929 20.9173C21.0997 20.9173 21.3099 20.9084 21.5126 20.8693C23.0001 20.5842 24.0016 19.3202 24.0047 17.7088C24.0105 14.7159 24.0065 11.7231 24.0065 8.73032C24.0065 8.65625 24.0065 8.58218 24.0065 8.45499C23.8888 8.53279 23.8149 8.57845 23.7441 8.6283C21.8788 9.95046 20.0113 11.2698 18.1492 12.5971C16.8746 13.5056 15.4772 14.0702 13.9429 14.2305C11.7248 14.462 9.69561 13.8997 7.85263 12.5883C5.9896 11.2624 4.12256 9.94254 2.2573 8.61991C2.18558 8.5696 2.11163 8.52301 1.98689 8.43962ZM13.014 2.0757C10.2124 2.0757 7.41026 2.07291 4.60859 2.0799C4.32971 2.08036 4.03836 2.09481 3.77374 2.1768C2.81461 2.47496 2.21186 3.14862 2.04792 4.18474C1.8822 5.23064 2.24438 6.08599 3.077 6.68372C5.04427 8.09626 7.02313 9.49111 9.00021 10.8883C11.494 12.6507 14.5185 12.6484 17.0172 10.8855C18.1229 10.1056 19.2255 9.32013 20.3298 8.53699C21.2133 7.91038 22.1042 7.29588 22.9774 6.65483C24.1998 5.75755 24.3593 3.96811 23.3284 2.84906C22.8206 2.29746 22.1893 2.07198 21.4641 2.07384C18.6477 2.07897 15.8309 2.0757 13.014 2.0757Z" fill="#383838"/>
</g>
<defs>
<clipPath id="clip0">
<rect width="26" height="23" fill="white"/>
</clipPath>
</defs>
</svg>
