<svg width="22" height="23" viewBox="0 0 22 23" fill="none" xmlns="http://www.w3.org/2000/svg">
<g clip-path="url(#clip0)">
<path d="M15.7445 23.0002C12.741 23.0002 9.16361 21.0619 5.56709 17.3051C5.54796 17.2851 5.52883 17.2652 5.5097 17.2452C-0.133779 11.3303 -1.54943 5.47541 1.79839 1.95846L2.56361 1.15916C3.34796 0.31989 4.4384 -0.0997455 5.54796 0.0201502C6.65753 0.120063 7.65231 0.719542 8.28361 1.67871C8.80013 2.45803 9.35492 3.27732 9.96709 4.19652C11.0193 5.77515 10.8471 7.87332 9.56535 9.21216L9.54622 9.23214C10.0436 9.91155 10.6175 10.591 11.2297 11.2504C11.861 11.9098 12.5114 12.5093 13.1619 13.0089L13.181 12.9889C14.4819 11.67 16.4906 11.4902 17.9827 12.5892L20.4123 14.3477C21.3306 15.0071 21.9045 16.0462 22.0001 17.2052C22.0958 18.3642 21.694 19.5032 20.9097 20.3225L20.1445 21.1218C18.9393 22.3807 17.428 23.0002 15.7445 23.0002ZM7.48013 15.0671C7.49926 15.087 7.51839 15.107 7.53753 15.127C10.828 18.564 15.5723 21.6413 18.1167 19.0036L18.8819 18.2043C19.1306 17.9246 19.1497 17.6248 19.1306 17.465C19.1306 17.3051 19.054 17.0254 18.7671 16.8056L16.3375 15.0271C15.9932 14.7873 15.4958 14.8273 15.2088 15.127L14.348 16.0262C13.8697 16.5258 13.1427 16.6057 12.5688 16.2261C11.421 15.4667 10.2923 14.5076 9.221 13.3685C8.13057 12.2295 7.21231 11.0506 6.48535 9.87158C6.12187 9.27211 6.19839 8.51277 6.67666 8.0132L7.53753 7.11398C7.82448 6.79426 7.86274 6.29469 7.61405 5.93501C7.00187 4.99582 6.42796 4.15655 5.91144 3.37723C5.72013 3.07749 5.43318 3.01754 5.28013 2.99756C5.12709 2.97758 4.84013 2.99756 4.59144 3.25734L3.82622 4.07662C1.32013 6.71433 4.20883 11.6301 7.48013 15.0671Z" fill="#383838"/>
</g>
<defs>
<clipPath id="clip0">
<rect width="22" height="23" fill="white"/>
</clipPath>
</defs>
</svg>
