<svg width="18" height="18" viewBox="0 0 18 18" fill="none" xmlns="http://www.w3.org/2000/svg">
<g clip-path="url(#clip0)">
<path d="M13.1732 14.2143C9.68449 17.0837 4.61191 16.5184 1.82623 13.1381C-0.797081 9.95492 -0.573609 5.26989 2.35625 2.34484C5.27924 -0.573687 9.95706 -0.792011 13.1375 1.82787C16.5181 4.61252 17.0828 9.68579 14.1979 13.193C14.2518 13.2226 14.3246 13.2438 14.3719 13.2909C15.4948 14.4093 16.6135 15.5311 17.736 16.6498C17.9574 16.8706 18.0501 17.1273 17.9719 17.4297C17.8301 17.9759 17.1696 18.1808 16.7374 17.8183C16.6894 17.7782 16.6458 17.7322 16.6015 17.6875C15.4972 16.5832 14.3925 15.4793 13.2892 14.3736C13.245 14.3296 13.2144 14.272 13.1732 14.2143ZM1.53548 8.02022C1.52998 11.6044 4.42586 14.5188 8.0021 14.528C11.5948 14.5377 14.5219 11.6353 14.5271 8.05832C14.5326 4.45118 11.6384 1.54123 8.04055 1.53608C4.44542 1.53162 1.54097 4.42681 1.53548 8.02022Z" fill="#383838"/>
<path d="M7.85241 3.38708C9.34772 3.40699 10.485 3.86458 11.439 4.77598C11.6484 4.97611 11.7496 5.21503 11.6947 5.50235C11.6384 5.79483 11.4644 5.99942 11.1788 6.09073C10.8804 6.18616 10.613 6.11579 10.3892 5.89712C9.93232 5.45052 9.3975 5.14226 8.77136 5.01147C7.608 4.76843 6.58435 5.05335 5.71243 5.86176C5.52638 6.03409 5.32591 6.1484 5.06914 6.12746C4.7492 6.10137 4.51681 5.9366 4.40593 5.63589C4.29333 5.33106 4.35169 5.04751 4.5858 4.81443C5.25107 4.15225 6.04129 3.71045 6.95887 3.51375C7.30901 3.43823 7.66979 3.41214 7.85241 3.38708Z" fill="#383838"/>
</g>
<defs>
<clipPath id="clip0">
<rect width="18" height="18" fill="white"/>
</clipPath>
</defs>
</svg>
