<svg width="23" height="20" viewBox="0 0 23 20" fill="none" xmlns="http://www.w3.org/2000/svg">
<g clip-path="url(#clip0)">
<path d="M11.5046 0.00300891C14.5712 0.00300891 17.6383 0.0014833 20.7049 0.00377171C21.868 0.00491592 22.7532 0.697162 22.9623 1.76967C23.068 2.31126 22.946 2.81433 22.6502 3.28612C21.5436 5.04973 20.441 6.81563 19.3375 8.58114C17.1982 12.0027 15.057 15.4235 12.922 18.8477C12.5675 19.416 12.0937 19.8173 11.4056 19.953C10.1992 20.1907 9.05365 19.5034 8.77223 18.3542C8.49359 17.2169 8.23879 16.0742 7.97486 14.9338C7.56266 13.1549 7.15325 11.3753 6.73548 9.59796C6.71124 9.49536 6.63611 9.39124 6.55661 9.31496C4.60652 7.43808 2.65166 5.56577 0.700772 3.69003C-0.0890431 2.93028 -0.224587 1.86158 0.359724 0.987791C0.770333 0.373732 1.36259 0.0285629 2.12578 0.0110184C2.9931 -0.00881458 3.86122 0.00300891 4.72855 0.00300891C6.98749 0.00262751 9.24604 0.00300891 11.5046 0.00300891ZM20.6357 3.19039C20.625 3.18048 20.6139 3.17094 20.6032 3.16102C20.5511 3.18582 20.4978 3.20946 20.4465 3.23616C16.5396 5.27857 12.6339 7.32213 8.72453 9.35996C8.56434 9.44349 8.5385 9.52473 8.57666 9.68797C9.05246 11.7136 9.51991 13.7408 9.98934 15.7675C10.1531 16.4743 10.3137 17.1814 10.4791 17.8877C10.557 18.2192 10.8491 18.3904 11.121 18.2478C11.2339 18.1887 11.3273 18.0712 11.3965 17.9614C14.1694 13.5344 16.9387 9.1048 19.708 4.67596C20.0176 4.18089 20.3265 3.68583 20.6357 3.19039ZM19.5585 1.74983C19.555 1.73458 19.5514 1.71894 19.5474 1.70368C19.4711 1.70368 19.3944 1.70368 19.3181 1.70368C13.7011 1.70368 8.08417 1.70368 2.46683 1.70407C2.36745 1.70407 2.26689 1.70101 2.1695 1.71474C1.82607 1.76395 1.66986 2.13162 1.87615 2.39898C1.91511 2.44971 1.9644 2.49357 2.0109 2.53857C3.84652 4.30066 5.68412 6.06121 7.51616 7.82672C7.6362 7.94229 7.72047 7.95297 7.86992 7.87478C11.7045 5.86403 15.5423 3.85823 19.3793 1.85129C19.4405 1.81925 19.4989 1.78378 19.5585 1.74983Z" fill="#CCCCCC"/>
</g>
<defs>
<clipPath id="clip0">
<rect width="23" height="20" fill="white"/>
</clipPath>
</defs>
</svg>
