<svg width="10" height="10" viewBox="0 0 10 10" fill="none" xmlns="http://www.w3.org/2000/svg">
<g clip-path="url(#clip0)">
<path d="M4.75002 9.99766C4.10187 9.99766 3.45373 9.99881 2.80543 9.9975C1.39197 9.99441 0.217585 8.96933 0.0242995 7.56883C0.00849113 7.45379 0.00213519 7.33647 0.00197222 7.22029C0.000505468 5.90502 -0.0014502 4.59006 0.00164628 3.27495C0.00490573 1.84968 1.08786 0.654816 2.50849 0.509797C2.7127 0.48894 2.92 0.49448 3.12599 0.493177C3.49757 0.490732 3.86915 0.492199 4.24056 0.492688C4.46742 0.493014 4.62762 0.641618 4.62942 0.851652C4.63121 1.0638 4.46856 1.21909 4.2391 1.21974C3.76713 1.22088 3.29532 1.21893 2.82335 1.22039C1.78457 1.22349 0.945584 1.92203 0.758491 2.94222C0.737142 3.05872 0.729971 3.1793 0.729808 3.29808C0.727852 4.59691 0.725734 5.89573 0.729482 7.19455C0.732741 8.35243 1.64441 9.26589 2.80119 9.26947C4.10302 9.27338 5.40468 9.27338 6.7065 9.26947C7.86377 9.26605 8.77414 8.35324 8.77968 7.19569C8.78277 6.55581 8.77984 5.91577 8.78066 5.27589C8.78098 5.04109 8.9363 4.87961 9.15403 4.88352C9.35513 4.88711 9.50703 5.04321 9.50751 5.25243C9.50882 5.72692 9.5098 6.20141 9.50735 6.6759C9.50589 6.94948 9.51485 7.22469 9.48926 7.49648C9.38105 8.65045 8.52332 9.63935 7.39409 9.91033C7.17212 9.96361 6.93923 9.99017 6.71074 9.99408C6.05738 10.0047 5.4037 9.99766 4.75002 9.99766Z" fill="#383838"/>
<path d="M6.32743 3.73694C6.21579 3.76089 6.11752 3.77751 6.02153 3.80309C5.44151 3.95789 4.95569 4.26341 4.5652 4.71981C4.44509 4.86011 4.30738 4.90459 4.15353 4.85424C4.00604 4.80585 3.91234 4.68217 3.905 4.52672C3.83395 3.01086 4.78082 1.72426 6.25572 1.33483C6.30983 1.32049 6.33003 1.29979 6.32873 1.24211C6.32482 1.07135 6.32629 0.900582 6.32759 0.729655C6.33003 0.431142 6.46058 0.204651 6.72981 0.0755998C6.99871 -0.0532884 7.25768 -0.0148338 7.49203 0.169944C8.23307 0.754096 8.9741 1.33809 9.71335 1.92419C10.0942 2.22613 10.0952 2.74331 9.71596 3.04378C8.97231 3.63314 8.22834 4.22218 7.48144 4.80764C7.05592 5.14118 6.44346 4.92154 6.34405 4.39653C6.31569 4.24679 6.33101 4.08873 6.32743 3.93443C6.32629 3.87528 6.32743 3.81597 6.32743 3.73694ZM4.76338 3.55721C4.76827 3.56096 4.77316 3.56471 4.77805 3.56845C4.80054 3.55428 4.82303 3.53994 4.84568 3.52593C5.39995 3.18375 6.00213 3.00076 6.6537 2.98414C6.89995 2.97778 7.05184 3.12704 7.05298 3.37243C7.05396 3.61913 7.05331 3.86583 7.05331 4.11252C7.05331 4.14104 7.05331 4.16955 7.05331 4.22007C7.79516 3.63412 8.51908 3.06252 9.25034 2.48488C8.51925 1.90774 7.79532 1.33629 7.05803 0.754259C7.05591 0.802979 7.05363 0.83182 7.05347 0.860498C7.05314 1.10719 7.05412 1.35389 7.05298 1.60059C7.052 1.82219 6.92554 1.95711 6.70781 1.98953C5.80266 2.12445 5.16902 2.6154 4.80217 3.45244C4.78734 3.48666 4.77625 3.52234 4.76338 3.55721Z" fill="#383838"/>
</g>
<defs>
<clipPath id="clip0">
<rect width="10" height="10" fill="white"/>
</clipPath>
</defs>
</svg>
