<svg width="41" height="30" viewBox="0 0 41 30" fill="none" xmlns="http://www.w3.org/2000/svg">
<path d="M15.9892 12.9246C15.3218 12.9246 14.6663 12.9329 14.0108 12.9223C13.3972 12.9122 12.8704 12.4772 12.7417 11.8975C12.6082 11.2958 12.9009 10.6668 13.466 10.4182C13.669 10.3292 13.9066 10.2852 14.1293 10.2799C14.8165 10.2627 15.5044 10.2651 16.1916 10.2781C16.4083 10.2823 16.4783 10.214 16.5095 10.0028C16.6088 9.3192 16.7351 8.63977 16.8507 7.95856C16.9812 7.19131 17.6355 6.68218 18.3508 6.79136C19.1314 6.91064 19.6109 7.56336 19.4894 8.35435C19.3936 8.978 19.2853 9.59988 19.1781 10.249C20.5927 10.249 21.9899 10.249 23.4194 10.249C23.5475 9.48476 23.672 8.7181 23.8049 7.95263C23.9205 7.28388 24.4 6.83587 25.0447 6.78068C25.6104 6.73262 26.1899 7.0845 26.3748 7.63635C26.4503 7.86125 26.4706 8.12352 26.4413 8.35969C26.3659 8.96614 26.2485 9.56783 26.1486 10.1719C26.1456 10.1909 26.151 10.2111 26.1557 10.274C26.5461 10.274 26.9411 10.274 27.3362 10.274C27.6152 10.274 27.8948 10.2663 28.1731 10.2763C28.9292 10.3042 29.5033 10.8834 29.5009 11.6061C29.4985 12.3443 28.9106 12.9181 28.1372 12.9246C27.3997 12.9312 26.6628 12.9294 25.9253 12.924C25.7654 12.9229 25.6709 12.9466 25.6409 13.1341C25.4368 14.401 25.2207 15.6655 25.01 16.9312C25.004 16.9674 25.0094 17.006 25.0094 17.0766C25.6667 17.0766 26.3126 17.0695 26.9579 17.0784C27.7367 17.089 28.3066 17.6884 28.2833 18.4562C28.2617 19.1659 27.6876 19.7142 26.9328 19.7255C26.2258 19.7362 25.5176 19.7362 24.8106 19.7237C24.5969 19.7201 24.5215 19.7824 24.4904 19.9967C24.3916 20.6802 24.2647 21.3597 24.1497 22.0409C24.0204 22.8081 23.3673 23.319 22.652 23.2111C21.8714 23.093 21.3895 22.439 21.5104 21.6498C21.6062 21.0262 21.7145 20.4043 21.8217 19.754C20.4083 19.754 19.0111 19.754 17.581 19.754C17.4535 20.5153 17.3278 21.2819 17.1961 22.0474C17.0805 22.7162 16.6034 23.1648 15.9587 23.2211C15.3936 23.2704 14.8111 22.9197 14.628 22.3672C14.5507 22.134 14.5352 21.8611 14.5657 21.6154C14.6423 20.9995 14.7615 20.3889 14.871 19.7284C14.525 19.7284 14.2005 19.7284 13.8755 19.7284C13.5265 19.7284 13.1775 19.7373 12.8297 19.7255C12.073 19.6994 11.4995 19.1202 11.5007 18.3975C11.5019 17.6599 12.0904 17.0849 12.8632 17.0778C13.6007 17.0712 14.3376 17.073 15.0751 17.0784C15.2356 17.0796 15.3296 17.0552 15.3595 16.8683C15.5636 15.6014 15.7791 14.3369 15.9898 13.0712C15.9946 13.0344 15.9892 12.9958 15.9892 12.9246ZM22.9603 12.9638C22.9052 12.9466 22.8777 12.93 22.8495 12.93C21.5355 12.9276 20.2215 12.9235 18.9076 12.9347C18.8351 12.9353 18.7154 13.0558 18.6998 13.1365C18.5723 13.8046 18.4628 14.4769 18.3502 15.1481C18.2449 15.7777 18.1419 16.4078 18.0383 17.0374C18.0934 17.0546 18.1216 17.0712 18.1491 17.0712C19.4631 17.0736 20.7771 17.0778 22.0911 17.0665C22.1635 17.0659 22.2832 16.9449 22.2988 16.8647C22.4263 16.1966 22.5358 15.5243 22.6484 14.8532C22.7537 14.2236 22.8561 13.5934 22.9603 12.9638Z" fill="#DD2829"/>
<path d="M33.7841 30C33.4279 30.0054 33.116 29.8861 32.8652 29.6405C32.1289 28.9195 31.3914 28.1997 30.6707 27.4633C30.157 26.9387 30.1744 26.1288 30.6808 25.6208C31.1903 25.1093 32.0086 25.0761 32.5378 25.5817C33.2902 26.3003 34.0284 27.0343 34.7545 27.7784C35.152 28.1855 35.2208 28.6845 35.0083 29.2061C34.809 29.6956 34.3223 30 33.7841 30Z" fill="#DD2829"/>
<path d="M32.3726 5.3524C31.668 5.32689 31.2525 5.09191 31.0113 4.60473C30.7647 4.10688 30.7964 3.59716 31.1747 3.19425C31.9206 2.40029 32.6922 1.6277 33.4866 0.880619C33.996 0.40116 34.8084 0.468213 35.2963 0.966067C35.7782 1.4568 35.8284 2.23829 35.3525 2.73971C34.609 3.52298 33.8434 4.28727 33.0538 5.02485C32.8467 5.2183 32.518 5.28535 32.3726 5.3524Z" fill="#DD2829"/>
<path d="M8.62443 24.65C9.33919 24.6732 9.76063 24.917 9.99948 25.4179C10.2329 25.9068 10.1988 26.41 9.82827 26.8028C9.0746 27.6033 8.29758 28.3848 7.49363 29.1348C6.99138 29.6036 6.19042 29.5277 5.70732 29.0393C5.23082 28.5581 5.16258 27.7837 5.62591 27.29C6.37839 26.4883 7.16199 25.714 7.96415 24.961C8.16469 24.774 8.48555 24.7123 8.62443 24.65Z" fill="#DD2829"/>
<path d="M7.09905 -1.7985e-05C7.60489 0.00176218 7.91558 0.140615 8.17299 0.39518C8.88536 1.09835 9.60072 1.79855 10.3041 2.51002C10.8423 3.05416 10.8345 3.88016 10.3047 4.39581C9.77971 4.90613 8.96558 4.91147 8.42442 4.38632C7.69888 3.68315 6.98232 2.9699 6.27055 2.2519C5.86708 1.84483 5.7713 1.27221 5.99818 0.774356C6.21847 0.292523 6.69438 -0.00417171 7.09905 -1.7985e-05Z" fill="#DD2829"/>
<path d="M2.82967 16.3194C2.35197 16.3194 1.87426 16.3236 1.39656 16.3188C0.592602 16.3105 0.00415162 15.7557 -3.87739e-05 15.008C-0.00422917 14.2598 0.583623 13.6889 1.38099 13.683C2.36634 13.6759 3.35168 13.6753 4.33702 13.6836C5.11583 13.6901 5.70009 14.2574 5.70668 14.9932C5.71266 15.7361 5.11823 16.3093 4.32265 16.3188C3.82519 16.3242 3.32713 16.3194 2.82967 16.3194Z" fill="#DD2829"/>
<path d="M38.1577 16.3194C37.6603 16.3194 37.1622 16.3248 36.6647 16.3182C35.8853 16.3075 35.3011 15.7462 35.2933 15.0098C35.2855 14.2669 35.8805 13.6889 36.6755 13.683C37.6609 13.6759 38.6462 13.6753 39.6315 13.6836C40.4127 13.6901 40.9952 14.2544 41 14.9914C41.0048 15.7397 40.4175 16.3087 39.6202 16.3188C39.1329 16.3248 38.645 16.3194 38.1577 16.3194Z" fill="#DD2829"/>
</svg>
