<svg width="19" height="18" viewBox="0 0 19 18" fill="none" xmlns="http://www.w3.org/2000/svg">
<path d="M9.16933 0.000737311C10.5691 0.000737311 11.9689 -0.00111109 13.3687 0.00104538C15.852 0.00535831 17.9013 1.74408 18.2648 4.15809C18.2974 4.37559 18.309 4.5977 18.3094 4.81797C18.3122 7.60566 18.315 10.393 18.3103 13.1807C18.3059 15.6428 16.4247 17.6948 13.9301 17.9665C13.7386 17.9875 13.5445 17.9955 13.3518 17.9955C10.5575 17.9974 7.76296 17.998 4.96871 17.9964C2.46563 17.9949 0.431138 16.2796 0.04969 13.8477C0.0164661 13.6354 0.00424348 13.4183 0.00393005 13.2035C0.00110915 10.4004 -0.00296609 7.59765 0.00330257 4.79456C0.00863093 2.35806 1.91274 0.289395 4.376 0.031852C4.57786 0.0105954 4.78221 0.00227764 4.98563 0.00196958C6.38009 -0.000494954 7.77487 0.000737311 9.16933 0.000737311ZM16.9099 8.99874C16.9099 7.62291 16.9099 6.24678 16.9099 4.87096C16.9099 4.85555 16.9099 4.84015 16.9096 4.82475C16.8929 2.90642 15.349 1.38488 13.3957 1.38026C10.5698 1.37348 7.74353 1.37348 4.91762 1.38026C2.96618 1.38519 1.41062 2.91012 1.40529 4.82567C1.39745 7.60843 1.39776 10.3912 1.40529 13.174C1.41062 15.0904 2.96556 16.6132 4.91793 16.6175C7.74384 16.6237 10.5701 16.6215 13.396 16.6154C13.6599 16.6148 13.9298 16.5861 14.1868 16.5276C15.7881 16.1628 16.9002 14.7907 16.908 13.1727C16.9149 11.7815 16.9096 10.39 16.9099 8.99874Z" fill="black"/>
<path d="M7.69619 6.71845C7.82626 6.27976 8.00179 5.88605 8.27071 5.54009C9.05429 4.53179 10.1156 4.14147 11.3759 4.21017C12.1855 4.25422 12.9145 4.50653 13.4831 5.09524C13.6436 5.26129 13.799 5.32352 14.0234 5.31151C14.3463 5.29395 14.6707 5.30689 14.9948 5.30719C15.2791 5.3075 15.5028 5.41902 15.6414 5.66671C15.783 5.92055 15.7561 6.16886 15.5937 6.4073C15.2888 6.85492 14.9825 7.30192 14.6842 7.75386C14.6362 7.82625 14.6049 7.92175 14.6011 8.00801C14.5478 9.24736 14.3115 10.4445 13.7266 11.5539C12.7051 13.4916 11.0684 14.5862 8.88723 14.913C8.11336 15.0288 7.33731 15.0399 6.56407 14.8985C5.51376 14.7063 4.64023 14.2045 3.93657 13.421C3.67454 13.1293 3.43069 12.8197 3.19656 12.5055C2.89849 12.1059 3.07401 11.5933 3.5498 11.434C3.77641 11.3582 4.00396 11.2846 4.24624 11.2051C4.20456 11.1386 4.1707 11.0825 4.13497 11.0277C2.83016 9.02309 2.88689 6.46183 4.27853 4.53333C4.4995 4.22711 4.82923 4.12268 5.15394 4.25546C5.32664 4.326 5.43728 4.4557 5.52724 4.61281C6.00616 5.44829 6.65465 6.12388 7.49779 6.6134C7.55577 6.64636 7.61595 6.67593 7.69619 6.71845ZM13.7056 6.70612C13.6715 6.69442 13.6621 6.68856 13.6526 6.68826C13.611 6.68671 13.5687 6.68271 13.5273 6.68702C13.1521 6.72399 12.8775 6.58474 12.6691 6.26959C12.4604 5.95352 12.1519 5.75143 11.7768 5.6587C11.3383 5.55026 10.8976 5.54225 10.4597 5.65747C9.57835 5.88944 9.01887 6.62295 8.9681 7.60444C8.93863 8.17529 8.5481 8.45502 7.98611 8.29883C6.79914 7.96889 5.86073 7.27327 5.06587 6.36879C5.02575 6.3232 4.98594 6.27729 4.93329 6.21753C4.90445 6.28684 4.87969 6.33706 4.86214 6.38974C4.28542 8.12939 4.649 9.66725 5.90054 11.008C6.31834 11.4556 6.1867 12.0156 5.60372 12.2113C5.384 12.2852 5.16366 12.3582 4.93329 12.4352C4.9546 12.4679 4.96306 12.4861 4.97623 12.5002C5.40155 12.9639 5.90524 13.3068 6.52427 13.474C7.22259 13.6629 7.93064 13.6549 8.63837 13.5569C10.4024 13.3123 11.7175 12.4349 12.5146 10.8518C13.0085 9.87058 13.1891 8.81915 13.1982 7.73383C13.1997 7.54129 13.2464 7.37124 13.359 7.21412C13.4762 7.05208 13.585 6.88388 13.7056 6.70612Z" fill="black"/>
</svg>
