<svg width="19" height="18" viewBox="0 0 19 18" fill="none" xmlns="http://www.w3.org/2000/svg">
<path d="M9.15078 17.997C7.75632 17.997 6.36155 17.9982 4.96709 17.9967C2.55177 17.9942 0.565551 16.3991 0.0922675 14.0729C0.0352228 13.7928 0.00670044 13.5026 0.00607358 13.2174C-0.000195073 10.4093 -0.00270276 7.60131 0.00387932 4.79298C0.00889424 2.35679 1.91206 0.291206 4.37814 0.0318142C4.57467 0.0111737 4.7737 0.0022398 4.97179 0.00193173C7.76102 8.3335e-05 10.5499 -0.000840864 13.3392 0.00100753C15.7645 0.00254787 17.7486 1.59741 18.2234 3.93317C18.2792 4.20796 18.3068 4.49323 18.3074 4.77357C18.3134 7.59207 18.3171 10.4103 18.3093 13.2288C18.3024 15.644 16.3895 17.7124 13.9441 17.9653C13.7419 17.9862 13.5379 17.9952 13.3348 17.9955C11.9397 17.9982 10.5452 17.997 9.15078 17.997ZM9.14075 16.6193C10.5562 16.6193 11.972 16.6236 13.3875 16.6184C15.3495 16.611 16.9026 15.0932 16.9076 13.1659C16.9151 10.3884 16.9151 7.61055 16.9076 4.83303C16.9023 2.90515 15.3511 1.38423 13.3884 1.37991C10.5675 1.37375 7.74692 1.37375 4.92603 1.37991C2.95861 1.38423 1.40868 2.91162 1.40461 4.84812C1.39897 7.61548 1.40179 10.3828 1.40555 13.1502C1.40586 13.3646 1.42122 13.5827 1.46322 13.7928C1.79703 15.4706 3.21406 16.6153 4.95643 16.619C6.35152 16.6218 7.74598 16.6193 9.14075 16.6193Z" fill="black"/>
<path d="M6.58129 8.99561C6.58129 8.0976 6.60041 7.19866 6.57471 6.30127C6.55715 5.69715 7.17431 5.36043 7.69524 5.66234C9.27308 6.57668 10.8653 7.4673 12.4513 8.36839C13.0023 8.68138 13.0074 9.31261 12.4592 9.62437C10.8647 10.5316 9.26932 11.4373 7.67267 12.3406C7.13983 12.6422 6.58348 12.3246 6.58192 11.7208C6.57972 10.8126 6.58129 9.9041 6.58129 8.99561ZM7.99238 10.5695C8.92391 10.0406 9.82786 9.52733 10.7581 8.999C9.82253 8.46789 8.91764 7.95466 7.99238 7.4294C7.99238 8.48453 7.99238 9.51193 7.99238 10.5695Z" fill="black"/>
</svg>
